<?xml version="1.0" standalone="no"?>
<!DOCTYPE svg PUBLIC "-//W3C//DTD SVG 20010904//EN"
 "http://www.w3.org/TR/2001/REC-SVG-20010904/DTD/svg10.dtd">
<svg version="1.0" xmlns="http://www.w3.org/2000/svg"
 width="477.000000pt" height="303.000000pt" viewBox="0 0 477.000000 303.000000"
 preserveAspectRatio="xMidYMid meet">

<g transform="translate(0.000000,303.000000) scale(0.100000,-0.100000)"
fill="#000000" stroke="none">
<path d="M2407 2894 c-4 -4 -7 -99 -7 -210 0 -167 -3 -203 -14 -206 -12 -3
-12 -9 0 -43 20 -57 19 -238 -1 -255 -8 -7 -15 -18 -15 -25 0 -17 -30 -49
-150 -156 -57 -52 -134 -123 -171 -159 -135 -131 -157 -150 -176 -150 -13 0
-26 -15 -40 -44 -12 -24 -19 -47 -16 -50 9 -9 103 46 103 60 0 12 26 38 219
224 154 149 259 240 277 240 23 0 204 -178 204 -200 0 -8 19 -27 43 -42 23
-15 90 -73 150 -130 86 -82 107 -109 107 -130 0 -16 -4 -28 -10 -28 -5 0 -47
-38 -92 -85 -46 -48 -88 -83 -95 -81 -8 3 -24 -12 -40 -37 -39 -61 -242 -266
-280 -282 -20 -9 -33 -21 -33 -32 0 -23 -100 -123 -123 -123 -9 0 -25 -16 -36
-38 -24 -46 -311 -332 -334 -332 -10 0 -23 -12 -30 -28 -6 -15 -48 -63 -92
-107 -44 -45 -133 -135 -198 -202 -66 -67 -124 -120 -131 -117 -13 5 -81 -95
-71 -105 3 -3 31 7 61 23 39 21 53 33 49 45 -7 22 394 421 423 421 20 0 81
-59 325 -313 53 -56 95 -107 93 -114 -3 -7 12 -22 32 -34 20 -13 40 -28 44
-33 4 -6 10 -7 14 -3 12 11 -38 107 -55 107 -22 0 -421 407 -421 430 0 20 296
308 340 330 27 14 40 26 36 35 -3 8 15 36 41 64 77 83 75 84 301 -142 123
-124 191 -199 187 -208 -3 -9 11 -24 40 -42 46 -27 65 -33 65 -19 -1 13 -61
97 -71 97 -13 0 -409 397 -409 411 0 16 252 265 289 286 17 9 31 24 31 33 0
25 166 185 191 185 14 0 51 -28 98 -75 42 -41 131 -128 199 -193 67 -65 122
-125 122 -134 0 -8 23 -27 50 -42 34 -19 50 -23 50 -14 0 25 -47 91 -73 102
-34 15 -417 385 -417 403 0 8 -15 20 -32 28 -38 16 -235 213 -267 266 -12 20
-28 36 -35 35 -21 -2 -206 183 -206 205 0 10 -4 21 -10 24 -14 9 -13 189 2
236 9 31 8 44 -1 63 -10 17 -12 74 -10 216 4 183 0 217 -24 194z"/>
<path d="M2228 2764 c-4 -3 5 -29 18 -57 13 -29 24 -58 24 -64 0 -30 28 -9 40
30 7 23 17 46 22 52 11 13 10 35 -2 35 -5 0 -10 -8 -10 -18 0 -10 -6 -27 -14
-37 -13 -18 -14 -18 -25 3 -6 11 -11 30 -11 41 0 20 -28 30 -42 15z"/>
<path d="M3240 2332 c0 -4 5 -13 11 -19 12 -12 8 -106 -5 -135 -7 -16 -3 -17
40 -12 90 10 94 12 94 43 0 16 -5 31 -11 33 -9 3 -9 10 0 26 23 44 -16 72
-100 72 -16 0 -29 -4 -29 -8z m88 -21 c19 -11 11 -45 -11 -49 -19 -4 -32 20
-23 43 6 17 15 19 34 6z m18 -86 c8 -20 -13 -45 -37 -45 -14 0 -19 7 -19 30 0
25 4 30 25 30 14 0 28 -7 31 -15z"/>
<path d="M305 2224 l0 -86 54 4 c37 4 58 11 68 24 13 17 14 17 29 -5 11 -15
24 -21 42 -19 34 4 42 28 9 28 -21 0 -37 16 -37 36 0 2 14 4 30 4 33 0 50 24
32 42 -26 26 -104 -4 -87 -33 10 -15 -13 -19 -25 -4 -10 12 -10 18 0 30 10 12
9 20 -4 40 -14 21 -24 25 -64 25 l-47 0 0 -86z m85 41 c0 -20 -5 -25 -25 -25
-20 0 -25 5 -25 25 0 20 5 25 25 25 20 0 25 -5 25 -25z m120 -25 c0 -5 -7 -10
-15 -10 -8 0 -15 5 -15 10 0 6 7 10 15 10 8 0 15 -4 15 -10z m-115 -50 c0 -20
-5 -25 -25 -25 -20 0 -26 6 -28 28 -3 26 -1 28 25 25 22 -2 28 -8 28 -28z"/>
<path d="M3639 2283 c0 -2 -1 -29 -1 -60 -1 -58 0 -58 30 -61 50 -5 70 12 68
55 -1 21 -5 43 -9 49 -6 10 -86 25 -88 17z m61 -23 c11 -7 12 -12 3 -21 -13
-13 -33 -4 -33 17 0 16 9 18 30 4z m10 -65 c0 -8 -9 -15 -20 -15 -11 0 -20 7
-20 15 0 8 9 15 20 15 11 0 20 -7 20 -15z"/>
<path d="M3400 2260 c-18 -33 -8 -73 21 -89 24 -13 29 -13 55 4 17 11 24 20
16 23 -7 2 -19 -1 -26 -8 -11 -8 -18 -6 -30 12 -16 22 -16 23 14 29 40 9 46
15 30 34 -19 22 -67 19 -80 -5z m55 0 c3 -5 -1 -10 -10 -10 -9 0 -13 5 -10 10
3 6 8 10 10 10 2 0 7 -4 10 -10z"/>
<path d="M3505 2269 c-11 -17 3 -23 20 -9 20 17 29 -8 22 -60 -4 -35 -3 -40
15 -40 15 0 19 6 17 28 -5 60 0 74 21 67 14 -5 20 -2 20 9 0 13 -12 16 -54 16
-30 0 -58 -5 -61 -11z"/>
<path d="M3755 2220 l0 -60 41 0 c48 0 74 22 57 48 -5 10 -22 18 -37 20 -21 3
-26 8 -24 25 2 16 -3 23 -17 25 -18 2 -20 -3 -20 -58z m68 -25 c1 -5 -6 -11
-15 -13 -11 -2 -18 3 -18 13 0 17 30 18 33 0z"/>
<path d="M561 2257 c-18 -18 -12 -28 14 -21 24 6 24 5 19 -46 -5 -49 -4 -51
18 -48 20 3 22 8 19 52 -3 48 -2 48 23 42 30 -7 36 10 7 19 -37 12 -89 13
-100 2z"/>
<path d="M695 2200 l0 -60 37 0 c47 0 87 37 59 54 -5 3 -7 15 -4 27 7 26 -11
39 -57 39 l-35 0 0 -60z m65 25 c0 -8 -7 -15 -15 -15 -8 0 -15 7 -15 15 0 8 7
15 15 15 8 0 15 -7 15 -15z m0 -50 c0 -8 -7 -15 -15 -15 -8 0 -15 7 -15 15 0
8 7 15 15 15 8 0 15 -7 15 -15z"/>
<path d="M818 2201 l-3 -61 41 0 c69 0 88 51 24 65 -24 5 -30 11 -28 28 2 14
-3 23 -14 25 -13 3 -17 -7 -20 -57z m65 -17 c3 -3 3 -12 0 -19 -6 -17 -33 -8
-33 11 0 14 21 19 33 8z"/>
<path d="M2764 2088 c-3 -5 -1 -14 4 -21 6 -7 10 -43 9 -82 -2 -64 0 -70 18
-70 15 0 19 6 17 23 -3 18 2 22 22 22 29 0 66 42 66 74 0 12 -7 31 -15 43 -13
18 -25 22 -66 21 -27 -1 -52 -5 -55 -10z m98 -43 c11 -42 1 -65 -28 -65 -22 0
-24 4 -24 43 0 24 3 47 7 51 15 14 37 0 45 -29z"/>
<path d="M1854 2052 c-6 -4 -8 -33 -4 -72 4 -57 8 -65 25 -65 11 0 19 5 18 10
-1 6 -2 15 -3 20 -1 6 -2 27 -1 48 1 33 4 37 27 37 39 0 24 25 -17 27 -19 1
-39 -1 -45 -5z"/>
<path d="M1970 1915 c0 -70 1 -75 21 -75 17 0 20 4 15 23 -3 12 -6 46 -6 75 0
39 -4 52 -15 52 -12 0 -15 -15 -15 -75z"/>
<path d="M2944 1974 c3 -9 6 -40 6 -70 0 -48 2 -54 21 -54 15 0 19 4 15 16 -3
9 -6 40 -6 70 0 48 -2 54 -21 54 -15 0 -19 -4 -15 -16z"/>
<path d="M3235 1930 c0 -55 2 -60 23 -60 20 0 22 5 22 51 0 43 3 50 18 47 14
-3 17 -13 15 -56 -2 -43 1 -52 15 -52 14 0 17 10 17 65 l0 65 -55 0 -55 0 0
-60z"/>
<path d="M3370 1986 c-1 -1 -2 -36 -3 -79 l-2 -77 27 0 c18 0 26 4 22 13 -2 7
8 17 26 24 16 6 34 22 39 35 6 14 10 17 10 7 2 -38 63 -63 89 -37 19 19 14 27
-15 25 -41 -3 -43 29 -4 38 38 8 40 31 6 47 -21 10 -30 8 -53 -9 -27 -20 -29
-20 -40 -3 -8 13 -23 18 -57 18 -25 -1 -45 -2 -45 -2z m80 -30 c6 -8 10 -25 8
-38 -2 -17 -10 -23 -28 -23 -18 0 -26 6 -28 23 -3 22 13 52 28 52 4 0 13 -7
20 -14z m110 4 c0 -5 -7 -10 -15 -10 -8 0 -15 5 -15 10 0 6 7 10 15 10 8 0 15
-4 15 -10z"/>
<path d="M3750 1970 c-24 -24 -26 -72 -4 -94 35 -36 104 -3 104 49 0 28 -35
65 -62 65 -10 0 -27 -9 -38 -20z m59 -14 c18 -21 10 -70 -11 -74 -24 -5 -42
42 -28 69 13 23 23 24 39 5z"/>
<path d="M3630 1936 c0 -30 -5 -46 -15 -50 -19 -7 -20 -26 0 -26 20 0 35 32
35 75 0 58 25 38 26 -21 1 -37 5 -50 17 -52 14 -3 17 6 17 57 l0 61 -40 0 -40
0 0 -44z"/>
<path d="M3865 1922 c0 -48 3 -58 18 -59 13 -1 17 7 18 35 l1 37 10 -32 c13
-40 28 -42 50 -5 l17 27 1 -32 c0 -23 5 -33 15 -33 12 0 15 13 15 60 0 71 -17
80 -43 24 l-18 -36 -22 33 c-13 19 -32 35 -42 37 -18 2 -20 -3 -20 -56z"/>
<path d="M4059 1973 c-1 -5 0 -22 1 -39 1 -17 -6 -36 -14 -43 -23 -19 -20 -33
7 -29 18 2 24 12 31 51 12 60 31 56 30 -6 0 -39 3 -47 18 -47 15 0 18 9 18 60
l0 60 -45 0 c-25 0 -45 -3 -46 -7z"/>
<path d="M4182 1968 c-17 -17 -15 -83 2 -97 8 -7 27 -11 42 -9 35 4 45 28 11
28 -25 0 -52 22 -40 33 3 4 21 7 40 7 36 0 41 10 17 34 -18 19 -55 21 -72 4z
m58 -18 c0 -5 -9 -10 -21 -10 -11 0 -17 5 -14 10 3 6 13 10 21 10 8 0 14 -4
14 -10z"/>
<path d="M296 1948 c-19 -26 -20 -51 -6 -79 8 -14 21 -19 50 -19 34 0 42 4 55
30 14 27 14 33 0 60 -13 24 -22 30 -50 30 -24 0 -39 -7 -49 -22z m74 -14 c10
-11 11 -23 4 -42 -12 -34 -35 -35 -51 -3 -22 44 17 82 47 45z"/>
<path d="M416 1954 c-5 -13 -1 -15 20 -10 27 7 27 7 22 -43 -5 -47 -3 -51 16
-51 19 0 21 5 18 50 -3 41 -1 50 12 50 9 0 16 -5 16 -12 0 -9 3 -9 11 -1 20
20 -1 33 -56 33 -39 0 -54 -4 -59 -16z"/>
<path d="M562 1963 c-4 -2 -7 -38 -6 -80 1 -73 3 -78 24 -81 19 -3 22 0 17 17
-4 16 0 21 13 21 24 0 58 30 61 55 3 23 -9 65 -19 66 -26 2 -83 4 -90 2z m84
-49 c8 -30 -16 -60 -40 -51 -16 6 -23 57 -9 70 16 16 43 6 49 -19z"/>
<path d="M699 1954 c-9 -11 -9 -18 -1 -26 8 -8 13 -7 18 5 7 19 29 23 39 7 4
-6 -9 -17 -29 -25 -43 -18 -50 -29 -37 -54 9 -15 20 -19 57 -18 l46 2 -4 52
c-3 29 -7 55 -10 58 -13 13 -68 12 -79 -1z m55 -63 c3 -5 -1 -14 -8 -20 -16
-13 -32 2 -21 19 8 12 22 13 29 1z"/>
<path d="M820 1959 c-13 -8 -13 -11 3 -20 23 -14 22 -38 -5 -66 l-21 -23 22 0
c13 0 32 10 43 23 l19 22 -5 -27 c-6 -24 -3 -28 17 -28 21 0 24 4 20 28 l-5
27 25 -30 c32 -38 47 -25 23 20 -18 32 -15 62 5 50 5 -4 9 1 9 9 0 22 -9 20
-38 -6 -24 -23 -24 -23 -18 -2 5 15 2 24 -10 28 -23 9 -36 -3 -29 -27 5 -20 3
-19 -17 5 -17 20 -27 25 -38 17z"/>
<path d="M1022 1959 c-12 -4 -27 -19 -33 -33 -23 -50 36 -109 77 -76 20 17 18
33 -3 22 -11 -7 -21 -6 -30 3 -21 22 -15 34 20 37 37 3 42 24 12 43 -13 9 -28
10 -43 4z m35 -25 c-3 -3 -12 -4 -19 -1 -8 3 -5 6 6 6 11 1 17 -2 13 -5z"/>
<path d="M4280 1915 c0 -49 2 -55 21 -55 15 0 19 5 14 19 -4 12 0 21 11 25 19
7 36 -12 29 -31 -2 -8 4 -13 15 -13 18 0 19 6 17 55 -2 46 -5 55 -21 55 -11 0
-16 -5 -13 -13 8 -21 -9 -41 -27 -34 -14 5 -15 11 -6 27 9 18 8 20 -15 20 -24
0 -25 -3 -25 -55z"/>
<path d="M4405 1961 c-3 -5 -1 -12 5 -16 9 -6 7 -26 -7 -77 -3 -14 2 -18 20
-18 18 0 27 7 31 25 4 14 14 25 22 25 12 0 15 -7 12 -25 -4 -18 -1 -25 11 -25
13 0 16 12 17 59 1 50 -1 58 -15 54 -9 -2 -21 -14 -26 -25 -13 -28 -41 -39
-31 -12 4 11 8 23 9 28 3 12 -41 18 -48 7z"/>
<path d="M4560 1961 c-26 -7 -42 -51 -20 -51 8 0 9 -7 5 -17 -4 -10 -9 -24
-12 -30 -8 -21 26 -15 39 7 7 11 17 20 22 20 4 0 6 -9 3 -20 -4 -15 0 -20 14
-20 18 0 20 6 17 58 -3 62 -12 69 -68 53z m38 -32 c-2 -6 -8 -10 -13 -10 -5 0
-11 4 -13 10 -2 6 4 11 13 11 9 0 15 -5 13 -11z"/>
<path d="M1105 1900 c-1 -51 2 -60 17 -60 13 0 18 8 18 26 0 19 4 25 18 22 11
-3 16 -12 15 -26 -2 -16 3 -22 17 -22 18 0 20 7 20 60 0 52 -3 60 -19 60 -14
0 -17 -6 -13 -25 3 -20 0 -25 -16 -25 -24 0 -37 16 -22 25 18 11 11 25 -12 25
-21 0 -23 -5 -23 -60z"/>
<path d="M1235 1900 c0 -55 2 -60 21 -60 15 0 24 8 28 25 4 14 13 25 21 25 18
0 20 -21 3 -38 -9 -9 -7 -12 10 -12 14 0 22 6 23 18 0 9 2 36 4 60 3 36 1 42
-16 42 -12 0 -19 -7 -19 -19 0 -21 -27 -48 -37 -37 -4 4 -2 16 5 26 17 28 16
30 -15 30 -27 0 -28 -1 -28 -60z"/>
<path d="M1383 1953 c-7 -2 -13 -15 -13 -28 0 -13 6 -25 13 -28 9 -3 7 -9 -5
-24 -23 -25 -23 -33 0 -33 9 0 23 9 30 20 7 11 17 20 22 20 6 0 10 -9 10 -20
0 -11 6 -20 13 -20 8 0 12 19 12 60 l1 60 -36 -1 c-19 0 -41 -3 -47 -6z m47
-33 c0 -5 -4 -10 -9 -10 -6 0 -13 5 -16 10 -3 6 1 10 9 10 9 0 16 -4 16 -10z"/>
<path d="M3272 1570 c-4 -3 -7 -44 -7 -92 0 -85 1 -88 23 -88 15 0 22 6 22 20
0 11 6 20 14 20 29 0 66 41 66 74 0 51 -24 76 -71 73 -22 -1 -44 -4 -47 -7z
m91 -57 c7 -38 -9 -65 -36 -61 -18 2 -23 11 -25 41 -4 46 12 71 38 57 10 -5
20 -22 23 -37z"/>
<path d="M2392 1501 c-4 -4 -6 -36 -4 -73 3 -62 6 -68 25 -68 21 0 22 4 19 61
-4 58 -3 61 17 54 16 -5 21 -2 21 13 0 16 -7 20 -35 19 -19 -1 -39 -3 -43 -6z"/>
<path d="M3453 1483 c-21 -8 -15 -26 7 -20 27 7 35 -24 16 -62 -9 -16 -20 -33
-26 -36 -23 -14 -7 -25 35 -25 25 0 45 5 45 10 0 6 -12 10 -26 10 l-26 0 21
34 c40 64 14 114 -46 89z"/>
<path d="M2485 1440 c-3 -5 2 -13 12 -17 43 -15 44 -24 8 -69 -19 -23 -35 -45
-35 -48 0 -10 79 -6 85 4 3 6 -3 10 -14 10 -26 0 -26 5 0 41 12 17 19 40 17
56 -2 23 -8 29 -35 31 -17 2 -34 -2 -38 -8z"/>
<path d="M1953 1061 c-5 -3 -6 -35 -3 -71 4 -56 8 -65 24 -65 18 0 20 6 17 58
-2 56 -2 58 21 55 15 -2 23 2 23 12 0 10 -11 15 -37 16 -20 1 -40 -2 -45 -5z"/>
<path d="M2750 1031 c-19 -4 -34 -12 -33 -18 1 -6 3 -48 4 -92 2 -77 4 -81 25
-81 13 0 26 5 29 10 3 6 1 10 -4 10 -6 0 -11 7 -11 15 0 9 9 15 23 15 37 0 58
22 64 68 4 32 1 47 -12 62 -19 21 -27 22 -85 11z m68 -48 c13 -38 -4 -75 -32
-71 -16 2 -22 12 -24 36 -4 45 3 62 27 62 12 0 23 -10 29 -27z"/>
<path d="M2060 991 c0 -6 8 -11 18 -11 15 0 18 -9 19 -55 1 -49 0 -54 -19 -52
-12 1 -23 -4 -25 -10 -3 -8 4 -13 19 -13 45 0 58 19 55 85 -2 60 -2 60 -34 63
-19 2 -33 -1 -33 -7z"/>
<path d="M2865 920 c-3 -5 3 -10 14 -10 23 0 29 -28 11 -46 -8 -8 -6 -15 5
-24 25 -21 19 -42 -12 -38 -15 2 -28 -2 -30 -9 -7 -20 52 -16 70 5 19 21 22
48 7 57 -7 4 -7 12 -1 23 13 24 -5 52 -34 52 -13 0 -27 -4 -30 -10z"/>
<path d="M1463 581 c-4 -3 -7 -36 -5 -73 3 -62 6 -68 26 -68 20 0 21 5 21 58
0 50 2 57 20 57 11 0 20 7 20 15 0 14 -65 23 -82 11z"/>
<path d="M1570 485 c-32 -46 -32 -65 -2 -65 10 0 23 -10 30 -21 14 -21 14 -21
28 7 10 19 11 31 4 38 -5 5 -10 27 -10 48 0 21 -4 38 -10 38 -5 0 -23 -20 -40
-45z m26 -42 c-11 -11 -19 6 -11 24 8 17 8 17 12 0 3 -10 2 -21 -1 -24z"/>
<path d="M2174 508 c-3 -5 0 -15 6 -23 8 -10 11 -40 8 -85 -4 -67 -3 -70 19
-70 18 0 22 5 20 22 -1 17 4 24 20 26 35 5 66 51 59 86 -3 16 -11 35 -17 42
-12 14 -107 16 -115 2z m98 -43 c11 -42 1 -65 -27 -65 -30 0 -43 39 -26 76 15
33 42 27 53 -11z"/>
<path d="M2321 363 c-37 -56 -38 -63 -7 -63 15 0 26 -7 29 -20 7 -27 20 -25
35 7 8 18 9 30 2 37 -5 5 -10 27 -10 48 0 21 -4 38 -9 38 -5 0 -23 -21 -40
-47z m25 -40 c-11 -11 -19 6 -11 24 8 17 8 17 12 0 3 -10 2 -21 -1 -24z"/>
<path d="M0 10 c0 -5 5 -10 11 -10 5 0 7 5 4 10 -3 6 -8 10 -11 10 -2 0 -4 -4
-4 -10z"/>
</g>
</svg>
