<?xml version="1.0" standalone="no"?>
<!DOCTYPE svg PUBLIC "-//W3C//DTD SVG 20010904//EN"
 "http://www.w3.org/TR/2001/REC-SVG-20010904/DTD/svg10.dtd">
<svg version="1.0" xmlns="http://www.w3.org/2000/svg"
 width="450.000000pt" height="405.000000pt" viewBox="0 0 450.000000 405.000000"
 preserveAspectRatio="xMidYMid meet">

<g transform="translate(0.000000,405.000000) scale(0.100000,-0.100000)"
fill="#000000" stroke="none">
<path d="M2390 3600 c0 -5 5 -10 10 -10 7 0 10 -112 8 -345 l-3 -345 -290
-287 c-159 -157 -293 -289 -296 -292 -3 -3 -237 -239 -520 -524 -617 -622
-590 -596 -611 -602 -9 -4 -19 -14 -22 -23 -6 -17 -338 -355 -366 -372 -13 -8
-7 -40 7 -40 5 0 91 83 193 185 106 106 193 185 203 185 11 0 91 -73 187 -170
93 -93 174 -170 180 -170 30 0 -5 42 -160 193 -94 91 -170 173 -170 182 0 10
28 46 63 82 120 125 458 458 471 465 9 5 96 -77 280 -264 218 -222 265 -275
261 -292 -4 -12 -91 -104 -195 -206 -267 -263 -326 -317 -349 -325 -11 -3 -23
-15 -26 -25 -3 -11 -89 -102 -191 -202 -101 -101 -184 -186 -184 -190 0 -31
60 16 215 172 99 99 184 180 188 180 9 0 289 -281 352 -354 30 -33 55 -41 55
-17 0 5 -81 91 -180 191 -142 145 -180 189 -180 210 0 21 48 74 253 277 139
138 262 253 273 257 16 5 53 -27 189 -164 93 -93 173 -176 177 -185 11 -18 38
-20 38 -2 0 7 -83 95 -185 197 -102 102 -185 187 -185 190 -1 3 -124 130 -275
283 -151 154 -277 288 -280 298 -5 16 44 71 246 274 140 140 260 255 269 255
8 0 96 -81 195 -180 99 -99 186 -180 193 -180 31 0 0 37 -168 203 -99 99 -180
186 -180 196 0 11 419 443 532 547 8 7 45 -14 69 -39 8 -8 119 -121 247 -251
164 -167 232 -243 232 -259 0 -15 -54 -76 -181 -201 -122 -122 -176 -182 -167
-187 8 -5 72 53 192 172 129 129 185 179 199 177 11 -2 134 -121 274 -265 192
-198 253 -267 253 -286 0 -19 -60 -84 -261 -283 -444 -441 -664 -664 -667
-680 -9 -37 37 0 210 173 l188 188 183 -185 c258 -261 347 -358 347 -376 0 -9
-81 -99 -181 -200 -100 -101 -178 -188 -174 -194 3 -6 12 -7 18 -3 7 4 92 86
190 183 97 96 183 176 190 178 7 1 52 -37 100 -85 235 -239 266 -268 277 -257
8 8 -38 59 -160 180 -94 93 -178 181 -186 197 -8 15 -19 27 -25 27 -6 0 -56
46 -111 103 -55 56 -174 177 -264 269 -97 99 -164 174 -164 186 0 12 101 120
265 283 146 145 272 267 280 272 20 11 19 55 0 59 -21 4 -565 547 -565 564 0
7 -8 15 -19 19 -28 9 -524 523 -539 559 -10 24 -13 110 -13 360 0 225 -3 334
-10 343 -13 15 -49 18 -49 3z"/>
<path d="M2517 3593 c-11 -10 -8 -101 2 -108 16 -9 26 22 23 69 -4 44 -10 54
-25 39z"/>
<path d="M2312 3528 c2 -35 8 -63 13 -63 6 0 11 28 13 63 2 51 0 62 -13 62
-13 0 -15 -11 -13 -62z"/>
<path d="M2515 3430 c-3 -5 -5 -36 -4 -70 1 -43 6 -60 15 -60 11 0 14 18 14
70 0 64 -9 86 -25 60z"/>
<path d="M2301 3393 c-14 -49 -13 -64 4 -86 13 -18 14 -18 34 2 25 25 26 40 7
86 -19 45 -33 44 -45 -2z"/>
<path d="M2300 3236 c0 -19 3 -41 6 -50 12 -32 24 -15 24 34 0 38 -4 50 -15
50 -10 0 -15 -10 -15 -34z"/>
<path d="M2507 3229 c-16 -19 -17 -26 -6 -70 7 -27 17 -48 23 -46 5 2 16 23
24 46 12 35 12 47 1 67 -15 29 -20 30 -42 3z"/>
<path d="M2304 3126 c-9 -24 0 -89 14 -94 8 -3 12 12 12 52 0 53 -14 74 -26
42z"/>
<path d="M2510 3040 c0 -29 4 -40 15 -40 11 0 15 11 15 40 0 29 -4 40 -15 40
-11 0 -15 -11 -15 -40z"/>
<path d="M2284 2973 c-4 -21 -18 -52 -31 -69 -12 -17 -23 -34 -23 -39 0 -4
-20 -27 -45 -52 -42 -41 -55 -63 -37 -63 10 0 92 83 92 93 0 4 11 20 25 35 14
15 25 34 25 44 0 9 4 18 10 20 5 2 12 18 16 36 5 25 3 32 -9 32 -11 0 -18 -13
-23 -37z"/>
<path d="M2523 2968 c-12 -14 5 -70 26 -82 14 -9 14 -1 -2 52 -10 34 -16 41
-24 30z"/>
<path d="M2819 2932 c0 -4 -1 -46 -2 -94 -2 -85 -1 -88 21 -88 15 0 22 6 22
20 0 12 7 20 18 20 31 1 63 37 66 75 4 52 -19 73 -77 73 -26 0 -47 -3 -48 -6z
m94 -43 c5 -9 7 -28 3 -42 -5 -20 -13 -27 -31 -27 -23 0 -25 4 -25 46 0 41 2
45 21 42 12 -2 26 -10 32 -19z"/>
<path d="M1840 2883 c-24 -4 -25 -7 -23 -71 1 -57 4 -67 20 -70 16 -2 19 4 18
55 0 54 2 58 23 57 15 0 22 5 22 18 0 18 -7 19 -60 11z"/>
<path d="M2560 2861 c0 -16 51 -71 66 -71 24 0 16 23 -18 52 -34 29 -48 34
-48 19z"/>
<path d="M1918 2815 c-3 -3 -1 -25 4 -48 5 -23 7 -54 4 -69 -5 -23 -2 -28 15
-28 18 0 20 5 17 72 -2 56 -7 73 -18 76 -9 1 -19 0 -22 -3z"/>
<path d="M2650 2788 c0 -19 60 -79 71 -73 5 4 -6 24 -23 45 -34 41 -48 49 -48
28z"/>
<path d="M2932 2748 c5 -24 7 -55 4 -70 -5 -24 -2 -28 17 -28 21 0 22 3 19 70
-3 66 -5 70 -27 70 -22 0 -22 -2 -13 -42z"/>
<path d="M2056 2684 c-29 -25 -37 -37 -29 -45 8 -8 21 0 47 27 58 62 46 75
-18 18z"/>
<path d="M2350 2695 c-15 -18 -3 -19 35 -5 21 8 35 7 57 -5 36 -17 60 -9 33
12 -26 18 -109 17 -125 -2z"/>
<path d="M2766 2662 c-5 -9 81 -102 95 -102 20 0 7 26 -33 67 -43 43 -53 49
-62 35z"/>
<path d="M2286 2635 c-12 -18 -23 -24 -39 -20 -19 5 -25 -2 -45 -46 -12 -29
-20 -54 -18 -57 3 -2 27 9 55 25 36 20 51 34 51 49 0 11 9 29 20 39 11 10 17
22 14 26 -9 15 -21 10 -38 -16z"/>
<path d="M2500 2656 c0 -2 12 -27 27 -55 20 -40 30 -50 45 -46 10 4 18 2 18
-4 0 -6 7 -11 15 -11 16 0 20 21 8 34 -4 4 -8 15 -8 23 0 9 -18 26 -40 39 -37
21 -65 30 -65 20z"/>
<path d="M1930 2565 c-18 -19 -30 -38 -27 -42 8 -7 77 55 77 69 0 16 -17 7
-50 -27z"/>
<path d="M2920 2510 c0 -16 50 -79 71 -91 32 -17 31 8 -2 46 -36 41 -69 62
-69 45z"/>
<path d="M1822 2453 c-32 -37 -39 -53 -24 -53 14 0 83 76 76 83 -12 12 -19 8
-52 -30z"/>
<path d="M2660 2485 c0 -13 84 -95 96 -95 21 0 18 7 -22 56 -20 24 -45 44 -55
44 -11 0 -19 -2 -19 -5z"/>
<path d="M2087 2442 c-34 -35 -50 -68 -28 -60 17 6 91 78 91 88 0 21 -27 9
-63 -28z"/>
<path d="M2330 2451 c-6 -12 -6 -22 -1 -26 10 -6 14 -1 24 28 9 23 -10 22 -23
-2z"/>
<path d="M2210 2433 l-35 -4 -2 -94 c-2 -95 -2 -95 23 -95 21 0 24 3 18 25 -6
23 -3 25 25 25 42 0 65 36 58 92 -5 39 -20 59 -42 56 -5 -1 -26 -3 -45 -5z
m55 -47 c18 -27 8 -69 -19 -79 -30 -12 -50 65 -24 91 17 17 26 15 43 -12z"/>
<path d="M2485 2378 c-2 -7 -5 -39 -7 -71 -3 -57 -3 -57 25 -57 20 0 26 4 20
13 -21 34 -11 94 18 99 35 5 26 23 -14 26 -24 2 -39 -1 -42 -10z"/>
<path d="M1327 2363 c-4 -3 -7 -18 -7 -32 l1 -26 19 24 c11 13 20 27 20 32 0
10 -24 12 -33 2z"/>
<path d="M1701 2336 c-44 -44 -24 -57 23 -15 20 17 36 35 36 40 0 18 -26 7
-59 -25z"/>
<path d="M2006 2347 c-30 -22 -1 -117 35 -117 6 0 7 9 2 23 -4 12 -7 41 -6 65
2 45 -3 50 -31 29z"/>
<path d="M2805 2317 c3 -34 0 -49 -15 -65 -23 -24 -26 -42 -7 -42 15 0 57 64
57 87 0 34 -12 63 -26 63 -10 0 -12 -11 -9 -43z"/>
<path d="M3426 2352 c-3 -5 -16 -7 -28 -5 -23 4 -23 2 -25 -91 l-2 -96 24 0
c22 0 25 3 19 27 -6 23 -4 25 14 21 14 -4 31 2 47 14 20 15 25 28 25 61 0 23
-4 47 -8 54 -10 16 -58 27 -66 15z m33 -36 c19 -22 10 -80 -13 -84 -22 -5 -36
14 -36 49 0 24 16 49 31 49 4 0 12 -6 18 -14z"/>
<path d="M3080 2336 c0 -7 7 -19 15 -26 8 -7 13 -16 10 -20 -6 -9 21 -33 62
-54 53 -27 55 -20 17 48 -21 38 -29 44 -40 35 -8 -6 -14 -7 -14 -2 0 5 -11 15
-25 21 -20 9 -25 9 -25 -2z"/>
<path d="M2573 2323 c-7 -2 -13 -11 -13 -19 0 -10 7 -13 25 -8 19 5 25 2 25
-11 0 -21 -17 -54 -42 -81 -19 -21 -19 -21 18 -27 20 -4 41 -4 46 -1 15 9 8
24 -11 24 -17 0 -18 3 -8 25 7 14 15 25 20 25 12 0 8 55 -5 68 -12 12 -33 14
-55 5z"/>
<path d="M2307 2313 c-11 -11 -8 -24 6 -22 46 6 49 -18 7 -71 -16 -21 -30 -41
-30 -44 0 -10 78 -7 85 4 3 6 -2 10 -13 10 -30 0 -33 11 -12 38 23 28 26 62 8
80 -13 13 -41 16 -51 5z"/>
<path d="M1216 2291 c-27 -6 -28 -8 -30 -74 -1 -66 0 -67 25 -67 25 0 25 1 21
60 -4 56 -3 60 18 60 12 0 20 5 18 12 -5 15 -16 17 -52 9z"/>
<path d="M1585 2219 c-28 -28 -35 -39 -23 -39 16 0 49 26 77 63 27 34 -12 17
-54 -24z"/>
<path d="M3507 2234 c-13 -13 -7 -25 9 -22 9 2 21 -4 27 -13 8 -13 4 -25 -21
-55 -18 -21 -32 -42 -32 -47 0 -4 19 -7 43 -5 23 2 41 7 39 13 -1 5 -9 10 -17
10 -20 0 -20 4 1 48 14 28 16 42 8 55 -12 18 -45 27 -57 16z"/>
<path d="M1297 2223 c-14 -13 -6 -23 18 -23 35 0 33 -30 -5 -73 -16 -19 -30
-37 -30 -41 0 -10 78 -7 85 4 3 6 -3 10 -14 10 -26 0 -26 8 -1 40 22 28 26 60
8 78 -13 13 -50 16 -61 5z"/>
<path d="M2692 2173 c-36 -18 -52 -33 -52 -47 0 -10 -7 -28 -17 -38 -23 -25
-8 -36 18 -12 12 10 31 19 42 19 15 0 28 13 45 44 12 24 21 48 20 53 -2 4 -27
-4 -56 -19z"/>
<path d="M2080 2182 c0 -5 3 -12 7 -16 4 -4 8 -15 8 -24 0 -17 90 -71 100 -60
5 5 -28 74 -43 89 -12 12 -72 21 -72 11z"/>
<path d="M3240 2178 c0 -23 67 -90 87 -86 15 3 11 11 -26 51 -44 48 -61 57
-61 35z"/>
<path d="M1483 2116 c-34 -33 -40 -46 -23 -46 10 0 80 64 80 74 0 15 -28 1
-57 -28z"/>
<path d="M1783 2126 c-34 -16 -28 -25 17 -24 24 0 48 -6 59 -16 19 -17 51 -22
51 -8 0 15 -33 38 -69 51 -19 6 -34 10 -35 10 -1 -1 -11 -6 -23 -13z"/>
<path d="M2944 2126 c-18 -8 -35 -19 -39 -26 -13 -21 5 -24 34 -7 36 21 79 22
102 1 11 -10 19 -12 24 -5 7 12 -51 51 -75 51 -8 -1 -29 -7 -46 -14z"/>
<path d="M1716 2064 c-5 -14 -9 -14 -22 -3 -13 10 -17 10 -25 -2 -5 -8 -9 -19
-9 -26 0 -6 -8 -25 -17 -42 -25 -43 -10 -48 43 -15 40 25 47 34 50 67 3 38 -9
50 -20 21z"/>
<path d="M3100 2057 c0 -19 78 -99 90 -92 12 8 -14 48 -54 83 -30 25 -36 27
-36 9z"/>
<path d="M1930 2049 c0 -8 10 -33 22 -57 17 -31 28 -42 41 -38 9 2 17 0 17 -5
0 -5 9 -9 20 -9 21 0 27 15 9 25 -6 4 -8 13 -5 21 3 9 -10 24 -35 40 -54 34
-69 39 -69 23z"/>
<path d="M2217 2043 c-6 -10 78 -103 92 -103 19 0 12 13 -30 63 -40 46 -53 55
-62 40z"/>
<path d="M2865 2040 c-4 -6 -15 -10 -25 -8 -12 2 -29 -14 -54 -51 -54 -80 -49
-89 23 -41 24 17 48 30 53 30 4 0 8 11 8 25 0 14 5 25 10 25 6 0 10 7 10 15 0
17 -16 20 -25 5z"/>
<path d="M1378 2005 c-37 -35 -48 -55 -28 -55 12 0 80 70 80 82 0 15 -15 7
-52 -27z"/>
<path d="M2538 2013 c-19 -22 -38 -58 -38 -72 0 -23 28 -10 40 18 6 16 20 31
31 34 13 3 17 11 13 21 -8 21 -27 20 -46 -1z"/>
<path d="M3400 2018 c1 -23 68 -90 87 -86 15 3 10 12 -26 51 -44 47 -61 57
-61 35z"/>
<path d="M3210 1942 c0 -5 12 -31 26 -56 17 -30 31 -45 40 -42 8 3 14 2 14 -2
0 -12 40 -33 51 -26 6 4 4 15 -5 30 -9 13 -16 29 -16 36 0 14 -52 51 -88 62
-12 4 -22 3 -22 -2z"/>
<path d="M1262 1890 c-41 -40 -52 -60 -32 -60 15 0 90 73 90 88 0 21 -14 14
-58 -28z"/>
<path d="M1526 1881 c-32 -32 -44 -51 -36 -56 6 -4 21 2 33 13 12 10 34 30 50
42 28 25 36 50 14 50 -7 0 -34 -22 -61 -49z"/>
<path d="M2300 1889 c0 -49 -16 -69 -56 -69 -49 0 -40 -24 10 -28 54 -5 76 18
76 80 0 36 -4 48 -15 48 -10 0 -15 -10 -15 -31z"/>
<path d="M3500 1913 c1 -16 39 -53 54 -53 22 0 20 13 -7 38 -23 22 -47 29 -47
15z"/>
<path d="M2080 1891 c0 -14 69 -71 85 -71 25 0 17 14 -27 48 -43 33 -58 39
-58 23z"/>
<path d="M2497 1894 c-11 -11 -8 -38 6 -58 18 -25 82 -37 104 -20 16 12 14 13
-18 14 -35 0 -71 26 -80 58 -3 7 -8 10 -12 6z"/>
<path d="M2675 1875 c-22 -18 -27 -27 -18 -36 8 -8 19 -4 42 17 52 46 31 64
-24 19z"/>
<path d="M1857 1853 c-4 -3 -7 -16 -7 -27 1 -21 1 -21 15 -2 8 11 15 23 15 28
0 10 -14 11 -23 1z"/>
<path d="M3590 1834 c0 -15 36 -64 47 -64 18 0 16 13 -8 44 -19 24 -39 34 -39
20z"/>
<path d="M1685 1715 c0 -90 1 -96 20 -93 12 2 20 11 20 23 0 14 8 21 25 23 39
6 60 31 60 71 -1 54 -19 71 -76 71 l-49 0 0 -95z m93 23 c-3 -38 -6 -43 -28
-43 -22 0 -25 5 -26 35 -1 45 2 50 32 50 23 0 25 -3 22 -42z"/>
<path d="M1140 1764 c-36 -33 -52 -64 -32 -64 12 1 92 78 92 89 0 20 -19 12
-60 -25z"/>
<path d="M1452 1783 c-16 -29 -3 -103 18 -103 13 0 13 107 1 115 -6 3 -14 -2
-19 -12z"/>
<path d="M3370 1778 c-1 -2 -2 -25 -4 -53 -2 -27 -6 -58 -10 -67 -14 -31 12
-20 29 12 22 42 18 110 -6 110 -5 0 -9 -1 -9 -2z"/>
<path d="M3640 1704 c0 -40 3 -55 13 -52 16 6 20 32 12 74 -10 53 -25 40 -25
-22z"/>
<path d="M737 1729 c-3 -13 -1 -19 6 -16 15 5 22 37 9 37 -5 0 -12 -9 -15 -21z"/>
<path d="M3056 1711 c-29 -6 -30 -7 -30 -73 -1 -66 0 -68 24 -68 24 0 25 3 25
58 0 50 2 57 18 54 13 -2 18 2 15 14 -4 21 -13 24 -52 15z"/>
<path d="M599 1698 c0 -2 -1 -35 -2 -74 -2 -70 -2 -71 24 -71 24 0 25 2 21 59
-4 54 -3 58 17 58 12 0 21 6 21 15 0 11 -11 15 -40 15 -22 0 -40 -1 -41 -2z"/>
<path d="M1803 1674 c-21 -9 -15 -27 7 -21 15 4 20 0 20 -13 0 -11 -5 -22 -11
-25 -7 -5 -5 -13 6 -25 22 -24 9 -52 -21 -44 -15 4 -24 2 -24 -5 0 -6 16 -11
35 -11 45 0 55 20 47 90 -6 45 -11 55 -27 57 -11 1 -26 -1 -32 -3z"/>
<path d="M997 1632 c-39 -39 -45 -52 -24 -52 13 0 87 70 87 83 0 17 -28 3 -63
-31z"/>
<path d="M1500 1663 c1 -5 20 -29 44 -55 29 -31 47 -44 56 -38 10 6 2 20 -30
54 -39 41 -71 59 -70 39z"/>
<path d="M710 1625 c-10 -13 -9 -15 9 -15 22 0 29 -24 10 -35 -7 -5 -5 -13 7
-26 21 -23 11 -53 -16 -46 -11 3 -23 1 -26 -4 -3 -5 -1 -9 5 -9 5 0 16 -3 24
-6 9 -3 25 4 36 15 17 17 19 28 14 73 -8 66 -34 88 -63 53z"/>
<path d="M3115 1630 c-7 -11 0 -13 28 -11 20 3 23 -19 5 -37 -10 -10 -10 -15
1 -21 20 -13 9 -46 -17 -49 -33 -5 -27 -22 8 -22 40 0 52 26 44 95 -6 52 -8
55 -35 55 -15 0 -31 -4 -34 -10z"/>
<path d="M3598 1596 c-15 -18 -24 -37 -21 -40 9 -8 63 44 63 61 0 22 -13 15
-42 -21z"/>
<path d="M3286 1589 c-28 -33 -26 -59 2 -37 36 26 62 52 62 60 0 20 -40 5 -64
-23z"/>
<path d="M1233 1563 c-24 -5 -49 -30 -40 -40 4 -3 22 2 41 11 21 10 45 14 61
10 14 -3 25 -2 25 4 0 5 -10 12 -22 16 -24 6 -29 6 -65 -1z"/>
<path d="M3513 1520 c-18 -16 -33 -34 -33 -40 0 -5 -7 -10 -15 -10 -8 0 -19
-9 -25 -21 -9 -16 -14 -18 -26 -8 -8 6 -16 10 -18 8 -13 -17 -47 -101 -42
-106 11 -12 96 41 96 60 0 10 27 44 60 76 33 31 57 60 54 64 -11 11 -17 8 -51
-23z"/>
<path d="M861 1494 c-38 -44 -49 -64 -35 -64 7 0 104 98 104 105 0 19 -35 -3
-69 -41z"/>
<path d="M1332 1530 c5 -15 109 -120 119 -120 21 0 5 29 -42 78 -46 46 -86 69
-77 42z"/>
<path d="M1155 1500 c-4 -6 -15 -8 -25 -5 -14 4 -25 -6 -48 -50 -20 -36 -26
-55 -17 -55 23 0 106 52 102 64 -2 6 0 19 4 28 10 19 -5 35 -16 18z"/>
<path d="M1666 1493 c-8 -9 104 -123 121 -123 22 0 15 14 -38 73 -48 54 -67
66 -83 50z"/>
<path d="M3146 1450 c-25 -24 -35 -40 -27 -44 13 -8 91 53 91 72 0 21 -24 11
-64 -28z"/>
<path d="M775 1407 c-49 -30 -69 -49 -71 -72 -2 -22 1 -24 29 -21 25 2 37 12
54 42 34 59 30 76 -12 51z"/>
<path d="M975 1329 c-28 -27 -37 -41 -29 -49 8 -8 23 1 52 28 42 40 53 63 30
61 -7 -1 -31 -19 -53 -40z"/>
<path d="M1490 1361 c0 -6 5 -13 11 -17 6 -3 17 -22 25 -40 9 -21 21 -34 33
-34 10 0 24 -7 31 -15 16 -19 40 -20 40 -1 0 7 -7 19 -15 26 -9 7 -14 19 -11
26 3 8 -12 24 -38 39 -44 26 -76 32 -76 16z"/>
<path d="M3033 1344 c-26 -15 -43 -33 -43 -43 0 -10 -7 -24 -15 -31 -8 -7 -15
-16 -15 -21 0 -15 20 -10 42 11 15 13 25 17 32 10 6 -6 19 8 38 42 15 28 28
53 28 55 0 10 -30 0 -67 -23z"/>
<path d="M1856 1301 c-3 -4 3 -16 14 -26 12 -11 18 -25 15 -36 -5 -14 6 -24
45 -44 29 -15 55 -24 58 -21 10 10 -46 101 -64 105 -10 2 -24 9 -32 17 -15 16
-28 18 -36 5z"/>
<path d="M3257 1262 c-49 -50 -56 -62 -34 -62 13 0 107 90 107 103 0 19 -30 2
-73 -41z"/>
<path d="M2355 1279 c-4 -11 -4 -23 0 -27 7 -7 25 17 25 36 0 20 -18 14 -25
-9z"/>
<path d="M1200 1260 c-15 -28 -1 -49 17 -25 13 18 13 18 13 -1 1 -17 2 -17 21
5 14 17 17 27 9 35 -8 8 -14 7 -20 -4 -7 -10 -10 -11 -10 -2 0 19 -18 14 -30
-8z"/>
<path d="M612 1237 c-31 -31 -41 -57 -24 -57 4 0 23 16 42 35 23 23 31 38 24
45 -7 7 -21 -1 -42 -23z"/>
<path d="M2185 1261 c-3 -2 -5 -44 -5 -93 0 -81 2 -88 20 -88 13 0 20 7 20 20
0 13 7 20 19 20 10 0 29 8 42 18 27 22 29 86 4 111 -14 15 -89 24 -100 12z
m83 -33 c29 -29 3 -98 -33 -84 -15 5 -22 76 -8 89 10 11 28 8 41 -5z"/>
<path d="M877 1232 c-23 -25 -22 -96 1 -120 21 -23 39 -50 51 -78 10 -22 100
-79 109 -69 8 8 -48 116 -57 111 -4 -3 -21 0 -37 6 -49 18 -71 92 -39 134 8
10 15 22 15 27 0 14 -27 7 -43 -11z"/>
<path d="M186 1224 c-10 -27 -7 -32 22 -30 25 1 51 20 52 39 0 15 -68 7 -74
-9z"/>
<path d="M1032 1148 c3 -85 5 -93 23 -93 15 0 19 6 17 23 -3 17 2 22 21 22 30
0 55 27 63 68 10 48 -16 72 -78 72 l-49 0 3 -92z m86 60 c29 -29 3 -98 -33
-84 -15 5 -22 76 -8 89 10 11 28 8 41 -5z"/>
<path d="M1484 1226 c-10 -27 2 -43 14 -19 8 14 9 24 2 28 -6 3 -13 -1 -16 -9z"/>
<path d="M2523 1223 c-21 -4 -23 -10 -23 -74 0 -65 1 -69 23 -69 21 0 22 3 19
60 -4 59 -3 60 23 60 17 0 25 5 23 13 -5 13 -30 17 -65 10z"/>
<path d="M1656 1176 c5 -31 2 -50 -10 -68 -15 -23 -13 -38 5 -38 29 0 51 114
27 138 -22 22 -28 13 -22 -32z"/>
<path d="M90 1193 c-24 -4 -25 -7 -25 -73 0 -68 1 -70 26 -70 25 0 25 1 21 60
-4 56 -3 60 18 60 13 0 20 5 18 13 -5 13 -20 16 -58 10z"/>
<path d="M1368 1193 c-27 -4 -28 -6 -28 -74 0 -65 1 -69 23 -69 22 0 23 3 19
60 -4 59 -4 60 22 60 16 0 26 5 26 15 0 15 -9 16 -62 8z"/>
<path d="M2852 1152 c-42 -37 -54 -62 -29 -62 19 0 90 81 80 91 -4 4 -27 -9
-51 -29z"/>
<path d="M3164 1165 c-23 -35 -12 -115 17 -115 22 0 22 0 9 35 -7 19 -6 35 4
60 21 49 -1 64 -30 20z"/>
<path d="M2305 1115 c-28 -49 -26 -65 9 -65 16 0 23 -5 22 -16 0 -9 5 -19 12
-21 7 -3 12 3 12 14 0 11 5 24 11 30 8 8 8 13 0 17 -6 4 -11 25 -11 47 0 53
-21 51 -55 -6z m35 -20 c0 -8 -7 -15 -16 -15 -14 0 -14 3 -4 15 7 8 14 15 16
15 2 0 4 -7 4 -15z"/>
<path d="M2611 1123 c-39 -48 -40 -96 -2 -86 14 3 19 0 18 -13 -1 -9 3 -18 8
-20 15 -5 34 42 24 58 -5 7 -9 30 -9 51 0 44 -11 47 -39 10z m16 -60 c-3 -3
-11 -2 -17 2 -8 5 -7 11 2 22 12 15 13 14 16 -1 2 -10 1 -20 -1 -23z"/>
<path d="M477 1102 c-38 -38 -45 -52 -28 -52 10 0 47 33 69 62 26 34 -6 26
-41 -10z"/>
<path d="M1163 1105 c-31 -47 -30 -75 2 -75 18 0 25 -5 25 -20 0 -11 4 -20 8
-20 17 0 28 46 24 98 -5 63 -26 69 -59 17z m27 -37 c0 -16 -3 -19 -11 -11 -6
6 -8 16 -5 22 11 17 16 13 16 -11z"/>
<path d="M171 1088 c-38 -51 -39 -68 -5 -68 17 0 28 -6 31 -20 7 -27 22 -25
31 3 12 34 3 127 -13 127 -7 0 -27 -19 -44 -42z m25 -35 c-10 -10 -19 5 -10
18 6 11 8 11 12 0 2 -7 1 -15 -2 -18z"/>
<path d="M1447 1088 c-32 -49 -31 -74 1 -71 16 2 22 -3 22 -17 0 -25 26 -26
32 -2 9 31 -4 132 -16 132 -6 0 -24 -19 -39 -42z m33 -22 c0 -15 -18 -31 -26
-23 -7 7 7 37 17 37 5 0 9 -6 9 -14z"/>
<path d="M2030 1122 c0 -13 94 -102 108 -102 22 0 12 18 -35 64 -44 42 -73 57
-73 38z"/>
<path d="M3435 1020 c0 -65 3 -90 13 -90 6 0 15 0 20 0 4 0 7 8 7 18 0 11 9
18 25 20 41 6 60 30 60 77 0 53 -13 65 -74 65 l-51 0 0 -90z m90 15 c0 -36 -2
-40 -25 -40 -22 0 -25 5 -28 43 -3 42 -2 43 25 40 25 -3 28 -7 28 -43z"/>
<path d="M1558 1010 c-44 -45 -50 -55 -34 -58 27 -6 115 83 98 100 -9 9 -23
-1 -64 -42z"/>
<path d="M2698 999 c-46 -50 -57 -69 -40 -69 16 0 113 100 107 110 -10 17 -18
12 -67 -41z"/>
<path d="M3210 1038 c1 -24 66 -90 85 -87 16 4 15 9 -14 42 -39 44 -71 65 -71
45z"/>
<path d="M348 981 c-40 -40 -46 -51 -25 -51 13 0 87 70 87 83 0 17 -28 3 -62
-32z"/>
<path d="M3566 980 c-33 -50 -33 -70 -1 -70 18 0 25 -5 25 -20 0 -11 7 -20 15
-20 8 0 15 9 15 19 0 11 6 21 13 24 10 4 10 7 0 18 -7 7 -13 30 -13 51 0 50
-20 50 -54 -2z m34 -25 c0 -8 -7 -15 -15 -15 -9 0 -12 6 -9 15 4 8 10 15 15
15 5 0 9 -7 9 -15z"/>
<path d="M667 994 c-11 -11 3 -24 25 -24 12 0 30 -8 40 -17 13 -11 22 -13 29
-6 7 7 2 17 -17 32 -26 20 -64 28 -77 15z"/>
<path d="M1802 978 c-21 -21 -13 -25 38 -20 33 3 50 1 50 -7 0 -6 7 -11 15
-11 8 0 15 7 15 15 0 30 -93 48 -118 23z"/>
<path d="M591 954 c-17 -14 -31 -32 -31 -40 0 -8 -13 -21 -30 -27 -30 -13 -80
-77 -80 -102 0 -21 8 -19 67 15 39 22 50 34 46 48 -3 12 9 34 36 62 23 24 41
47 41 51 0 20 -21 17 -49 -7z"/>
<path d="M2180 967 c0 -16 62 -77 78 -77 20 0 14 16 -20 54 -32 37 -58 47 -58
23z"/>
<path d="M2942 948 c-17 -21 -4 -29 25 -15 34 15 83 -12 152 -85 47 -52 81
-72 81 -50 0 10 -113 122 -124 122 -5 0 -14 7 -21 16 -16 22 -97 31 -113 12z"/>
<path d="M786 941 c-9 -13 43 -113 55 -105 5 3 17 0 25 -7 20 -16 45 4 27 22
-6 6 -9 17 -7 24 3 7 -6 19 -20 29 -15 9 -37 23 -50 32 -14 9 -27 11 -30 5z"/>
<path d="M1060 942 c0 -12 70 -92 81 -92 20 0 7 28 -29 63 -37 37 -52 45 -52
29z"/>
<path d="M1712 886 c-53 -49 -63 -66 -39 -66 19 0 100 86 95 101 -3 9 -23 -4
-56 -35z"/>
<path d="M1932 923 c2 -5 14 -30 27 -56 17 -36 27 -47 39 -42 8 3 19 0 23 -6
4 -7 15 -9 24 -5 14 5 15 9 5 21 -6 8 -9 19 -5 24 3 6 -16 24 -42 41 -45 28
-79 39 -71 23z"/>
<path d="M1425 890 c-38 -22 -49 -34 -47 -50 2 -11 -4 -23 -12 -26 -17 -6 -22
-34 -8 -34 5 0 17 9 27 20 11 12 25 18 36 15 13 -4 23 5 39 38 31 63 23 71
-35 37z"/>
<path d="M2896 905 c-4 -10 -13 -14 -29 -10 -20 5 -27 -1 -50 -46 -15 -29 -25
-55 -22 -57 11 -11 118 56 110 68 -3 4 2 13 10 20 8 7 15 19 15 26 0 19 -26
18 -34 -1z"/>
<path d="M2561 875 c-17 -20 -31 -42 -31 -50 0 -22 28 -18 35 4 3 10 14 26 25
36 21 19 27 45 11 45 -5 0 -23 -16 -40 -35z"/>
<path d="M241 874 c-22 -29 -27 -54 -11 -54 10 0 50 58 50 73 0 15 -19 6 -39
-19z"/>
<path d="M3362 881 c9 -25 81 -92 96 -89 13 3 7 13 -27 51 -38 41 -79 64 -69
38z"/>
<path d="M2280 851 c0 -20 40 -101 50 -101 14 0 12 23 -6 70 -14 35 -44 56
-44 31z"/>
<path d="M1144 826 c-3 -9 -4 -29 -1 -45 8 -36 -16 -71 -49 -71 -13 0 -24 -4
-24 -10 0 -21 61 -10 87 16 21 22 25 32 20 66 -6 48 -23 70 -33 44z"/>
<path d="M207 784 c-4 -4 -7 -22 -7 -40 0 -41 32 -74 72 -74 37 0 35 11 -5 30
-24 11 -33 23 -35 45 -4 33 -14 49 -25 39z"/>
<path d="M1610 779 c0 -7 -9 -9 -24 -5 -21 5 -28 -1 -50 -38 -29 -50 -32 -66
-13 -66 24 0 97 54 97 72 0 9 5 20 10 23 15 9 12 25 -5 25 -8 0 -15 -5 -15
-11z"/>
<path d="M930 770 c0 -16 77 -62 97 -58 13 2 6 11 -30 36 -50 33 -67 39 -67
22z"/>
<path d="M2496 764 c-3 -9 -6 -33 -6 -55 0 -49 27 -79 73 -78 29 0 30 1 13 12
-54 35 -59 43 -58 90 2 46 -10 63 -22 31z"/>
<path d="M2070 761 c0 -15 71 -64 80 -55 11 11 2 25 -30 47 -27 18 -50 22 -50
8z"/>
<path d="M378 732 c-38 -28 -49 -52 -24 -52 8 0 16 4 18 8 2 4 18 18 36 31 33
23 42 42 20 40 -7 0 -30 -13 -50 -27z"/>
<path d="M2705 720 c-16 -16 -37 -32 -47 -36 -19 -6 -25 -34 -7 -34 30 0 109
63 109 87 0 22 -25 14 -55 -17z"/>
<path d="M3230 742 c0 -10 93 -102 103 -102 17 0 4 28 -32 68 -35 38 -71 55
-71 34z"/>
<path d="M1256 703 c-20 -21 -36 -41 -36 -45 0 -19 29 -5 60 27 24 25 31 38
23 46 -7 7 -21 -1 -47 -28z"/>
<path d="M3510 732 c0 -5 9 -17 19 -26 11 -10 17 -25 14 -36 -4 -14 7 -24 46
-43 52 -27 76 -21 48 11 -8 9 -18 27 -21 39 -4 12 -26 31 -50 42 -47 23 -56
25 -56 13z"/>
<path d="M1800 701 c-7 -14 -7 -22 1 -27 12 -7 29 12 29 34 0 19 -18 14 -30
-7z"/>
<path d="M2294 695 c-10 -8 -37 -15 -59 -15 -38 -1 -39 -1 -20 -16 35 -26 115
-4 115 32 0 18 -11 18 -36 -1z"/>
<path d="M891 668 c-5 -13 -6 -27 -3 -32 6 -11 32 22 32 41 0 21 -20 15 -29
-9z"/>
<path d="M1664 683 l-32 -4 2 -94 1 -95 28 0 c24 0 27 3 21 25 -5 20 -3 25 14
25 29 0 61 31 68 65 6 35 -26 86 -54 83 -9 0 -31 -3 -48 -5z m52 -31 c29 -20
21 -92 -10 -92 -30 0 -48 64 -24 88 14 14 19 14 34 4z"/>
<path d="M3939 666 c-2 -2 -3 -45 -1 -95 3 -82 5 -91 23 -91 12 0 19 7 19 19
0 12 10 21 27 26 36 9 52 32 53 77 0 48 -21 68 -74 68 -23 0 -45 -2 -47 -4z
m89 -73 c3 -40 1 -43 -22 -43 -24 0 -26 3 -26 46 0 41 2 45 23 42 18 -2 23
-10 25 -45z"/>
<path d="M1462 638 c-14 -14 -16 -78 -3 -78 13 0 17 9 25 53 7 38 -1 46 -22
25z"/>
<path d="M761 621 c-10 -7 -11 -13 -2 -29 8 -14 8 -34 2 -62 -5 -22 -8 -41 -7
-41 0 -1 13 -3 27 -4 25 -3 25 -3 21 56 -4 55 -3 59 17 59 12 0 21 6 21 15 0
17 -55 21 -79 6z"/>
<path d="M3350 611 c0 -5 6 -14 14 -20 22 -18 25 -47 10 -77 -18 -35 -4 -51
21 -24 27 30 25 88 -4 111 -25 20 -41 24 -41 10z"/>
<path d="M3055 595 c-5 -2 -23 -6 -38 -10 -24 -5 -27 -8 -17 -20 7 -8 11 -35
8 -65 -3 -48 -2 -50 22 -50 24 0 25 2 22 54 -3 48 -1 54 18 59 12 3 20 11 18
18 -5 14 -17 19 -33 14z"/>
<path d="M1092 547 c-42 -42 -53 -67 -29 -67 16 0 97 82 97 98 0 23 -25 11
-68 -31z"/>
<path d="M852 545 c-16 -34 -16 -34 13 -45 18 -7 25 -17 25 -35 0 -20 -5 -25
-26 -25 -21 0 -24 -3 -15 -14 6 -7 22 -11 36 -8 18 3 27 14 35 41 9 33 8 38
-16 57 l-25 21 23 16 23 16 -31 0 c-24 1 -34 -5 -42 -24z"/>
<path d="M3705 520 c73 -75 108 -65 38 10 -24 27 -45 40 -62 40 -24 0 -23 -3
24 -50z"/>
<path d="M1751 534 c-12 -28 -7 -44 13 -44 20 0 37 -25 30 -44 -3 -9 -17 -16
-30 -16 -13 0 -24 -4 -24 -10 0 -13 36 -13 61 0 26 15 26 71 -1 88 -24 14 -26
32 -5 32 8 0 15 5 15 10 0 22 -47 10 -59 -16z"/>
<path d="M4060 531 c-16 -32 -12 -48 16 -55 20 -5 25 -12 22 -34 -2 -22 -7
-26 -27 -24 -16 3 -22 -1 -19 -10 6 -16 58 -13 70 4 17 27 8 66 -19 86 -26 19
-27 20 -5 26 30 10 28 26 -3 26 -14 0 -29 -8 -35 -19z"/>
<path d="M1480 520 c0 -17 77 -93 90 -88 9 3 0 20 -29 51 -42 46 -61 57 -61
37z"/>
<path d="M3110 509 c-13 -24 -7 -49 13 -49 21 0 38 -25 31 -44 -3 -9 -17 -16
-30 -16 -13 0 -24 -4 -24 -10 0 -13 36 -13 61 0 25 14 25 60 -1 88 -24 25 -25
32 -5 32 8 0 15 5 15 10 0 19 -49 10 -60 -11z"/>
<path d="M958 412 c-40 -40 -46 -52 -25 -52 13 0 87 70 87 83 0 17 -28 3 -62
-31z"/>
<path d="M3277 402 c-35 -35 -47 -62 -29 -62 14 0 93 86 86 93 -12 12 -19 8
-57 -31z"/>
<path d="M3812 431 c4 -11 72 -86 86 -95 6 -3 13 -2 17 4 8 12 -73 100 -92
100 -8 0 -13 -4 -11 -9z"/>
<path d="M1225 402 c-35 -22 -62 -52 -47 -52 6 0 27 10 48 22 32 19 40 20 71
9 39 -14 54 -8 32 13 -25 25 -71 28 -104 8z"/>
<path d="M1590 405 c0 -9 7 -18 16 -22 10 -4 14 -13 10 -27 -5 -19 3 -26 49
-49 33 -16 55 -22 55 -15 0 21 -51 98 -64 98 -8 0 -19 7 -26 15 -16 19 -40 19
-40 0z"/>
<path d="M3510 355 c-18 -22 -6 -29 27 -18 15 6 45 8 66 5 45 -5 50 13 6 22
-52 10 -86 7 -99 -9z"/>
<path d="M1381 313 c73 -81 82 -88 86 -68 2 18 -90 115 -110 115 -16 0 -12 -8
24 -47z"/>
<path d="M854 328 c-19 -27 -44 -77 -44 -87 0 -20 29 -11 36 12 3 12 15 34 25
49 11 14 19 29 19 32 0 11 -27 6 -36 -6z"/>
<path d="M1117 305 c-34 -33 -54 -71 -44 -82 5 -5 15 5 68 69 39 48 22 57 -24
13z"/>
<path d="M3930 332 c0 -14 29 -63 45 -74 5 -4 14 -3 19 2 5 5 -7 25 -28 47
-20 21 -36 32 -36 25z"/>
<path d="M3642 321 c2 -5 14 -32 28 -60 18 -37 30 -50 43 -47 9 2 17 0 17 -5
0 -5 7 -9 16 -9 12 0 15 6 10 23 -3 12 -6 30 -6 40 0 9 -5 17 -11 17 -6 0 -25
11 -43 25 -33 25 -61 33 -54 16z"/>
<path d="M3140 278 c-29 -32 -46 -65 -37 -74 8 -8 37 8 37 20 0 7 11 23 25 36
25 24 33 50 16 50 -6 0 -24 -15 -41 -32z"/>
<path d="M3463 286 c-4 -7 -19 -13 -31 -12 -19 1 -29 -9 -49 -47 -14 -26 -23
-50 -20 -53 11 -11 107 49 107 66 0 10 7 23 15 30 8 7 15 16 15 21 0 14 -28
10 -37 -5z"/>
<path d="M1726 252 c-8 -13 19 -95 32 -100 16 -5 16 49 0 83 -11 25 -23 32
-32 17z"/>
<path d="M4006 177 c6 -49 4 -56 -17 -71 -13 -9 -34 -16 -47 -16 -13 0 -20 -4
-17 -10 11 -17 61 -11 89 11 19 15 26 29 25 52 -1 45 -12 80 -27 85 -9 3 -11
-10 -6 -51z"/>
<path d="M793 188 c-12 -15 -4 -44 18 -76 14 -19 24 -23 55 -20 44 3 49 21 7
26 -33 4 -53 26 -53 59 0 25 -12 30 -27 11z"/>
<path d="M1009 184 c-7 -8 -25 -22 -41 -30 -31 -16 -37 -34 -12 -34 22 0 96
59 88 71 -8 13 -20 11 -35 -7z"/>
<path d="M1490 180 c12 -22 89 -70 113 -70 27 0 20 16 -12 30 -16 6 -39 22
-52 36 -29 30 -65 34 -49 4z"/>
<path d="M3068 153 c-5 -84 18 -122 75 -123 36 0 34 12 -6 30 -30 14 -32 18
-32 68 1 43 -2 52 -17 52 -13 0 -19 -8 -20 -27z"/>
<path d="M3775 170 c-5 -9 81 -79 98 -80 21 0 2 30 -37 58 -49 35 -52 36 -61
22z"/>
<path d="M3258 107 c-60 -53 -63 -75 -9 -47 42 21 84 67 75 81 -9 14 -17 10
-66 -34z"/>
<path d="M1635 111 c-11 -11 10 -21 45 -21 42 0 70 8 70 20 0 7 -108 9 -115 1z"/>
</g>
</svg>
